<svg xmlns="http://www.w3.org/2000/svg" width="160" height="48" viewBox="0 0 160 48">
  <!-- Main circle background -->
  <g transform="translate(8 8)">
    <circle cx="16" cy="16" r="16" fill="#2563eb"/>
    
    <!-- Cog/gear design -->
    <path d="M16 7c-1.1 0-2 .9-2 2v1.1c-.8.2-1.5.5-2.2 1l-.9-.9c-.8-.8-2-.8-2.8 0-.8.8-.8 2 0 2.8l.9.9c-.4.7-.7 1.4-.9 2.2H7c-1.1 0-2 .9-2 2s.9 2 2 2h1.1c.2.8.5 1.5 1 2.2l-.9.9c-.8.8-.8 2 0 2.8.8.8 2 .8 2.8 0l.9-.9c.7.4 1.4.7 2.2.9V25c0 1.1.9 2 2 2s2-.9 2-2v-1.1c.8-.2 1.5-.5 2.2-1l.9.9c.8.8 2 .8 2.8 0 .8-.8.8-2 0-2.8l-.9-.9c.4-.7.7-1.4.9-2.2H25c1.1 0 2-.9 2-2s-.9-2-2-2h-1.1c-.2-.8-.5-1.5-1-2.2l.9-.9c.8-.8.8-2 0-2.8-.8-.8-2-.8-2.8 0l-.9.9c-.7-.4-1.4-.7-2.2-.9V9c0-1.1-.9-2-2-2z" 
          fill="#2563eb" stroke="#fff" stroke-width="1.5"/>
    
    <!-- Inner circle (representing AI core) -->
    <circle cx="16" cy="16" r="5" fill="#fff"/>
    
    <!-- Dots representing connectivity -->
    <circle cx="16" cy="8" r="1.2" fill="#fff"/>
    <circle cx="24" cy="16" r="1.2" fill="#fff"/>
    <circle cx="16" cy="24" r="1.2" fill="#fff"/>
    <circle cx="8" cy="16" r="1.2" fill="#fff"/>
  </g>
  
  <!-- Logo text -->
  <text x="45" y="28" font-family="'Segoe UI', Arial, sans-serif" font-weight="600" font-size="22" fill="#2563eb">
    Cog AI
  </text>
</svg>